<svg id="Layer_1" data-name="Layer 1" xmlns="http://www.w3.org/2000/svg" xmlns:xlink="http://www.w3.org/1999/xlink" viewBox="0 0 900 900"><defs><style>.cls-1{fill:none;}.cls-2{fill:#fffac0;}.cls-3{clip-path:url(#clip-path);}.cls-4{fill:#ff6b00;}.cls-5{fill:#63477a;}.cls-6{fill:#ffb400;}.cls-7{fill:#fe8278;}.cls-8{fill:#48b0bd;}.cls-9{fill:#9c9401;}.cls-10{fill:#9c9100;}.cls-11{fill:#b5d000;}.cls-12{fill:#fa5138;}</style><clipPath id="clip-path"><rect class="cls-1" x="0.11" y="-1.23" width="900.31" height="901.13"/></clipPath></defs><title>Artboard 1</title><rect class="cls-2" x="-31" y="-32.37" width="962.54" height="963.41"/><g class="cls-3"><path class="cls-4" d="M336.56,333.9C318.9,324.36,291.79,341,292,361.45c.17,14.28,10.31,14.8,19.93,20.07,9.23,5.07,13.7,15.39,24,19.15,10,3.64,21.4,3.28,30.32-3,10.17-7.21,7.34-18.52,11.07-28.72,3.46-9.48,15.57-16.19,12.84-27.77-2.24-9.46-10.08-15.94-19.17-17.82a34.75,34.75,0,0,0-20,1.37c-5.57,2.05-10.72,8.39-16.9,7.91"/><path class="cls-4" d="M393.47,363.78c7.85-4.59,19.89,1.4,26.9,13.4s6.33,25.45-1.51,30-19.9-1.4-26.91-13.4S385.61,368.38,393.47,363.78Z"/><path class="cls-4" d="M373.25,397.51c8.38-3.54,20,5,25.93,19s4,28.33-4.41,31.88-20-5-25.92-19S364.87,401.07,373.25,397.51Z"/><path class="cls-4" d="M332.49,406.83c8.8-2.28,19,7.87,22.83,22.65s-.26,28.6-9.06,30.87-19-7.87-22.84-22.65S323.68,409.1,332.49,406.83Z"/><path class="cls-4" d="M302.18,387.42c8.26.51,14.26,12.15,13.42,26s-8.24,24.67-16.49,24.17-14.26-12.15-13.41-26S293.93,386.91,302.18,387.42Z"/><path class="cls-4" d="M654.14,502.93c-20.07-.2-36.3,27.16-26.53,45.16,6.81,12.55,16,8.27,27,8.44,10.53.17,19.29,7.21,30.19,5.71,10.53-1.45,20.46-7.09,25.39-16.84,5.64-11.13-2.14-19.81-3.59-30.57-1.36-10,6.22-21.6-1.59-30.56-6.4-7.33-16.35-9.38-25.26-6.81a34.8,34.8,0,0,0-17,10.53c-4,4.42-5.56,12.43-11.26,14.9"/><path class="cls-4" d="M718.41,502.77c4.79-7.73,18.24-8,30-.72s17.46,19.55,12.66,27.28-18.25,8.06-30.05.72S713.6,510.51,718.41,502.77Z"/><path class="cls-4" d="M716.25,542.05c5.75-7,20-4.94,31.8,4.72S764.77,570,759,577s-20,4.94-31.8-4.71S710.5,549.1,716.25,542.05Z"/><path class="cls-4" d="M684.54,569.32c6.73-6.12,20.5-1.92,30.75,9.38s13.11,25.41,6.38,31.53-20.5,1.93-30.75-9.37S677.81,575.45,684.54,569.32Z"/><path class="cls-4" d="M648.69,566.32c7.53-3.41,18.27,4.08,24,16.73s4.23,25.66-3.31,29.07-18.27-4.08-24-16.73S641.15,569.73,648.69,566.32Z"/><path class="cls-5" d="M476.7,744.62c-.33,20.08,26.88,36.52,44.93,26.87,12.59-6.73,8.38-16,8.62-27,.24-10.54,7.33-19.27,5.92-30.17-1.37-10.56-6.95-20.53-16.65-25.54-11.08-5.72-19.81,2-30.57,3.39-10,1.29-21.54-6.38-30.54,1.38-7.36,6.35-9.49,16.29-7,25.24a34.93,34.93,0,0,0,10.41,17.1c4.38,4,12.38,5.65,14.8,11.37"/><path class="cls-5" d="M477,680.3c-7.69-4.86-7.92-18.32-.52-30.07s19.66-17.35,27.35-12.49,7.92,18.32.51,30.08S484.68,685.16,477,680.3Z"/><path class="cls-5" d="M516.21,682.72c-7-5.8-4.79-20,4.94-31.8s23.29-16.57,30.29-10.76,4.8,20-4.93,31.8S523.22,688.53,516.21,682.72Z"/><path class="cls-5" d="M543.25,714.65c-6.08-6.77-1.79-20.53,9.57-30.71s25.48-13,31.55-6.17,1.78,20.53-9.58,30.72S549.31,721.43,543.25,714.65Z"/><path class="cls-5" d="M540,750.52c-3.35-7.57,4.21-18.27,16.88-23.9s25.67-4,29,3.52S581.69,748.4,569,754,543.35,758.08,540,750.52Z"/><path class="cls-6" d="M262.13,745c-14.71,13.67-7.69,44.7,11.76,51,13.57,4.43,17.32-5,25.39-12.44,7.77-7.13,19-8,25.84-16.63,6.66-8.3,10-19.23,6.87-29.71-3.55-11.95-15.16-12.91-23.61-19.72-7.86-6.33-10.32-20-22.14-21.09-9.68-.92-18.32,4.43-23,12.44a34.83,34.83,0,0,0-5.11,19.36c.15,5.94,4.49,12.85,2,18.56"/><path class="cls-6" d="M308.68,700.67c-1.82-8.92,7.73-18.41,21.33-21.2s26.11,2.18,27.93,11.09-7.72,18.41-21.32,21.2S310.51,709.59,308.68,700.67Z"/><path class="cls-6" d="M334.11,730.67c-.67-9.08,11.12-17.34,26.32-18.46s28.08,5.34,28.75,14.41S378.06,744,362.85,745.08,334.77,739.75,334.11,730.67Z"/><path class="cls-6" d="M329.82,772.3c.68-9.08,13.55-15.5,28.76-14.36s27,9.43,26.3,18.51S371.32,792,356.11,790.81,329.13,781.38,329.82,772.3Z"/><path class="cls-6" d="M301.72,794.79c3.13-7.66,16.07-9.62,28.91-4.36s20.7,15.73,17.57,23.39-16.07,9.61-28.91,4.35S298.58,802.45,301.72,794.79Z"/><path class="cls-7" d="M573.41,485.23c15.17-13.16,9.23-44.41-10-51.43-13.41-4.89-17.48,4.42-25.81,11.56-8,6.85-19.22,7.39-26.39,15.72-6.94,8.07-10.65,18.88-7.9,29.46,3.14,12.07,14.72,13.42,22.92,20.52,7.64,6.6,9.63,20.31,21.41,21.85,9.64,1.25,18.46-3.8,23.43-11.64a34.77,34.77,0,0,0,5.79-19.17c0-5.94-4.06-13-1.42-18.62"/><path class="cls-7" d="M525.36,527.93c1.51,9-8.36,18.13-22,20.45s-26-3.07-27.54-12,8.35-18.13,22-20.44S523.84,519,525.36,527.93Z"/><path class="cls-7" d="M501,497.07c.35,9.1-11.71,16.95-26.94,17.55s-27.88-6.31-28.23-15.41,11.71-16.95,26.94-17.53S500.63,488,501,497.07Z"/><path class="cls-7" d="M506.71,455.62c-1,9-14.09,15-29.25,13.36s-26.64-10.36-25.64-19.41,14.09-15,29.25-13.36S507.7,446.57,506.71,455.62Z"/><path class="cls-7" d="M535.56,434.11c-3.39,7.55-16.39,9.06-29,3.36s-20.14-16.44-16.75-24,16.39-9.05,29-3.36S539,426.56,535.56,434.11Z"/><path class="cls-8" d="M150.5,707.46c19.5,4.77,41.52-18.17,36.11-37.93-3.78-13.77-13.72-11.7-24.35-14.37-10.22-2.56-17.15-11.41-28.1-12.44-10.58-1-21.53,2.25-28.56,10.61-8,9.55-2.42,19.78-3.45,30.59-1,10.05-11,19.61-5.41,30.11,4.56,8.6,13.78,12.87,23.05,12.39a34.75,34.75,0,0,0,19-6.37c4.87-3.4,8.24-10.84,14.35-11.94"/><path class="cls-8" d="M87.89,693c-6.43,6.44-19.6,3.68-29.42-6.15s-12.55-23-6.12-29.45,19.6-3.67,29.42,6.16S94.32,686.53,87.89,693Z"/><path class="cls-8" d="M98.92,655.2c-7.2,5.56-20.58.26-29.89-11.84s-11-26.4-3.79-32,20.58-.25,29.89,11.84S106.13,649.65,98.92,655.2Z"/><path class="cls-8" d="M136,635.88c-7.95,4.42-20.4-2.8-27.82-16.13s-7-27.74,1-32.17,20.4,2.8,27.81,16.14S144,631.45,136,635.88Z"/><path class="cls-8" d="M170.23,647c-8.11,1.6-16.86-8.14-19.55-21.76s1.73-26,9.84-27.56,16.87,8.14,19.55,21.76S178.35,645.38,170.23,647Z"/><path class="cls-8" d="M540.23,299.29c-13.36,15-3.47,45.23,16.5,49.72,13.92,3.13,16.77-6.63,24.11-14.77,7.06-7.83,18.12-9.8,24.16-19,5.85-8.88,8.14-20.08,4.06-30.22-4.66-11.57-16.31-11.43-25.37-17.41-8.41-5.57-12.14-18.91-24-18.92-9.72,0-17.82,6.13-21.75,14.55A34.84,34.84,0,0,0,534.64,283c.71,5.9,5.68,12.38,3.78,18.29"/><path class="cls-8" d="M582.41,250.77c-2.65-8.71,6-19.05,19.24-23.11s26.2-.29,28.85,8.42-6,19-19.23,23.11S585.07,259.48,582.41,250.77Z"/><path class="cls-8" d="M610.54,278.25c-1.52-9,9.44-18.31,24.48-20.86s28.46,2.68,30,11.65-9.45,18.31-24.48,20.86S612.05,287.22,610.54,278.25Z"/><path class="cls-8" d="M610.17,320.1c-.17-9.1,12.05-16.72,27.29-17s27.75,6.86,27.92,16-12,16.71-27.29,17S610.34,329.2,610.17,320.1Z"/><path class="cls-8" d="M584.31,345.13c2.4-7.93,15.1-11.09,28.37-7.06s22.09,13.71,19.69,21.63-15.1,11.09-28.37,7.06S581.91,353.05,584.31,345.13Z"/><path class="cls-9" d="M541.8,201.72c19.5,4.77,41.52-18.17,36.11-37.93-3.78-13.77-13.72-11.7-24.35-14.37C543.34,146.86,536.41,138,525.47,137c-10.59-1-21.54,2.25-28.57,10.61-8,9.56-2.42,19.78-3.45,30.59-1,10.06-11,19.61-5.41,30.11,4.56,8.6,13.78,12.87,23,12.39a34.69,34.69,0,0,0,19-6.37c4.87-3.4,8.25-10.84,14.36-11.94"/><path class="cls-9" d="M479.19,187.22c-6.43,6.44-19.6,3.68-29.42-6.14s-12.55-23-6.12-29.46,19.6-3.68,29.42,6.16S485.62,180.79,479.19,187.22Z"/><path class="cls-9" d="M490.22,149.47c-7.2,5.55-20.58.25-29.89-11.84s-11-26.4-3.8-32,20.59-.25,29.9,11.84S497.43,143.91,490.22,149.47Z"/><path class="cls-9" d="M527.31,130.14c-7.95,4.42-20.4-2.8-27.81-16.13s-7-27.74,1-32.17,20.4,2.8,27.81,16.14S535.26,125.72,527.31,130.14Z"/><path class="cls-9" d="M561.53,141.24c-8.11,1.6-16.86-8.14-19.55-21.76s1.73-25.95,9.84-27.55,16.87,8.14,19.55,21.75S569.65,139.64,561.53,141.24Z"/><path class="cls-10" d="M172.63,442.84c15.17,24.48,63.88-10.44,35.93-32.38-11.14-8.74-31.12,0-40.4,10.05-6.45,7-51-13.63-58-19.41-6.78-5.56,5.35-16.34-5.11-27.25-6.68-8-20.18-11-28.81-5-9.25,6.43-9.61,18.05-9.89,28.1,11.67-15.95,31.11,3.87,25,18.74-7.09-37.73-52.78-3.47-32.32,21.08,14.49,15.86,34.13,3.35,34.35-6.3,8.74-4.26,53.49,15.57,61.22,18.74.68,11.7-.66,21.67,8.88,29.53,36.8,24.82,43.94-19.85,31.49-22.49-7.78-2.44-25.07.33-22.36-14.34"/><path class="cls-11" d="M293.15,576.05c-26.78-10.55-45,46.59-9.47,47.46,14.14.35,25-18.58,26.38-32.22,1-9.48,49-19.56,58.12-19.14,8.75.4,5.45,16.29,20.36,18.79,10.15,2.45,22.72-3.28,26.06-13.25,3.57-10.69-3.07-20.23-8.85-28.45.16,19.77-27.25,15.5-31.26,0,28.21,26,44.38-28.79,13.32-36.23-21.08-4.06-29.37,17.72-23.78,25.59-4.46,8.65-52.18,19.52-60.27,21.59-7.54-9-12.41-17.77-24.75-18.36-44.33,2.12-23.38,42.2-11.82,36.87,7.7-2.7,19.9-15.26,26.49-1.88"/><path class="cls-5" d="M812.5,402.71c15.17,24.48,63.88-10.45,35.93-32.39-11.13-8.74-31.12,0-40.39,10.05-6.45,7-51-13.63-58-19.41-6.78-5.55,5.36-16.33-5.11-27.25-6.67-8-20.17-11-28.81-5-9.24,6.43-9.61,18.06-9.88,28.1,11.67-16,31.11,3.87,25,18.74-7.08-37.72-52.77-3.47-32.31,21.08,14.48,15.87,34.12,3.36,34.34-6.29,8.74-4.27,53.49,15.56,61.22,18.74.69,11.69-.66,21.67,8.88,29.52,36.81,24.83,44-19.85,31.5-22.48-7.79-2.45-25.07.32-22.37-14.34"/><path class="cls-11" d="M361,233.52c5.52,28.27,63.43,12.89,45.06-17.55-7.32-12.11-29.08-11.07-41.33-4.92-8.51,4.28-42.85-30.82-47.39-38.72C313,164.73,328.13,159,322.2,145c-3.4-9.88-15-17.4-25.18-14.86-10.93,2.75-15.38,13.48-19.19,22.78,16.56-10.78,27.72,14.65,16.78,26.4,6.72-37.79-48.13-21.95-37.69,8.26,7.94,20,30.73,15.24,34.35,6.29,9.68-.89,44.52,33.52,50.62,39.23-3.5,11.18-8.29,20-2.15,30.76,25.63,36.26,48.12-3,37.41-9.86-6.41-5.05-23.55-8.59-15.84-21.34"/><path class="cls-7" d="M724.19,98.87c14.38-25-39.39-51.41-45.5-16.38-2.43,14,14.67,27.46,27.94,30.88,9.23,2.37,12.1,51.4,10.34,60.35-1.69,8.61-16.91,3-21.58,17.39-3.92,9.69-.11,23,9.25,27.76,10,5.11,20.44-.06,29.41-4.56-19.55-2.76-11.29-29.28,4.67-30.94-29.86,24.08,21.89,48.18,33.84,18.53,7.12-20.27-13.18-31.68-21.78-27.32-7.89-5.69-11.58-54.54-12.43-62.85,10-6.13,19.38-9.66,21.8-21.79,4.45-44.19-38.25-29.38-34.69-17.15,1.52,8,12.13,22-2.05,26.51"/><path class="cls-7" d="M689.94,715.76c-27.75-7.64-39.79,51.1-4.38,48.2,14.1-1.16,22.86-21.13,22.82-34.84,0-9.53,46.65-24.66,55.75-25.21,8.75-.53,7.15,15.62,22.25,16.52,10.35,1.36,22.24-5.67,24.5-15.94,2.42-11-5.19-19.79-11.81-27.35,2.26,19.64-25.46,18.31-31.09,3.27,30.8,22.87,41.08-33.34,9.4-37.44-21.39-1.8-27.32,20.74-20.93,28-3.52,9.07-49.82,24.95-57.64,27.87-8.44-8.11-14.23-16.35-26.56-15.62-43.85,6.81-18.77,44.44-7.85,37.91,7.38-3.49,18.18-17.28,26.15-4.69"/><path class="cls-6" d="M164.69,250.89c-16.75,23.42,34.15,55,43.67,20.78,3.79-13.64-11.9-28.77-24.77-33.47-9-3.27-7-52.35-4.36-61.08,2.53-8.4,17.12-1.32,23.18-15.18,4.85-9.26,2.38-22.86-6.48-28.54-9.48-6.07-20.34-2-29.71,1.65,19.19,4.67,8.36,30.24-7.69,30.33,32.09-21-17.05-50.11-31.85-21.77-9.08,19.47,10,32.82,19,29.32,7.29,6.44,6.16,55.42,6.2,63.78-10.53,5.12-20.24,7.7-23.83,19.54-8.78,43.54,35.18,33,32.83,20.47-.73-8.13-9.92-23,4.65-26.17"/><path class="cls-5" d="M6.18,527.91c5.85-8.23,19.31-11.49,19.73-23.37.35-9.72-5.49-18-13.76-22.27a35.43,35.43,0,0,0-13.8-4v65.08C1.07,538.47,2.72,532.77,6.18,527.91Z"/><path class="cls-5" d="M23.05,527.22c-8.79,2.35-13,15.13-9.42,28.56S27.24,578.19,36,575.84s13-15.14,9.42-28.57S31.83,524.87,23.05,527.22Z"/><path class="cls-5" d="M1.9,609.17c9-1.2,14.69-14.44,12.68-29.56-1.73-13-8.6-23.19-16.23-25V609A10.09,10.09,0,0,0,1.9,609.17Z"/><path class="cls-4" d="M11.5,350.17a34.73,34.73,0,0,0,19-6.38c4.87-3.4,8.25-10.83,14.36-11.93l-2.62-.65C61.7,336,83.73,313,78.32,293.28,74.54,279.51,64.6,281.57,54,278.91c-10.22-2.56-17.15-11.41-28.09-12.44-10.08-.94-20.48,1.95-27.52,9.45v71.53A26.12,26.12,0,0,0,11.5,350.17Z"/><path class="cls-4" d="M-.1,243.49c7.42,13.34,19.87,20.56,27.81,16.14s8.38-18.83,1-32.16S8.81,206.9.87,211.33a10.15,10.15,0,0,0-2.52,2v27.09C-1.17,241.45-.67,242.47-.1,243.49Z"/><path class="cls-4" d="M52.23,221.41C44.11,223,39.71,235.35,42.39,249s11.44,23.36,19.55,21.76,12.52-13.94,9.83-27.56S60.34,219.81,52.23,221.41Z"/><path class="cls-10" d="M7.56,711c3.82-9.63,0-22.74-9.21-27.55V721A15,15,0,0,0,7.56,711Z"/><path class="cls-10" d="M25,819.46C27.28,806,11.4,793.08-1.65,789.19v46.06C9.92,838.64,22.39,835.31,25,819.46Z"/><path class="cls-8" d="M82.33,77.09c-11.13-8.74-31.12,0-40.39,10-4.52,4.91-27.67-3.72-43.59-11.33v28c13.18,4.81,26.2,10.51,30,12.09.69,11.7-.66,21.67,8.88,29.53,36.8,24.82,43.94-19.86,31.49-22.49-7.78-2.45-25.07.32-22.36-14.34v.89C61.57,134,110.28,99,82.33,77.09Z"/><path class="cls-1" d="M887.74,726.83c-1.69,9,1.52,58,10.77,60.28.48.12,1,.26,1.47.41V719.28C894.49,721.57,888.71,721.71,887.74,726.83Z"/><path class="cls-1" d="M868.8,95.47c-.22,9.66-19.86,22.17-34.34,6.3C814,77.22,859.69,43,866.77,80.69c6.07-14.87-13.36-34.69-25-18.74.28-10,.65-21.67,9.89-28.1,8.64-6,22.14-3.07,28.81,5,10.47,10.92-1.67,21.7,5.11,27.25,2.12,1.74,7.62,4.81,14.44,8.08V-4.65H778.66V898.23H900V833.58c-14-4.11-26.71-18.12-18.93-31.85l.79-.43c-14.16,4.65-3.45,18.51-1.87,26.52,3.65,12.2-39,27.32-34.81-16.9,2.32-12.15,11.71-15.74,21.64-21.95-.91-8.31-4.95-57.13-12.87-62.76-8.57,4.43-28.95-6.84-22-27.16,11.73-29.74,63.66-6,34,18.29,16-1.78,24-28.35,4.45-31,8.94-4.57,19.31-9.81,29.38-4.77l.23.14V607.33c-7.7-1.68-14.67-11.91-16.41-25.05-2-15.13,3.67-28.37,12.68-29.57a10.19,10.19,0,0,1,3.73.22V541.67c-2.22,4-5.17,7.41-10.44,9.32-10.27,3.72-21.37,1-30-5.12-9-6.37-10.54-17.5-18.11-24.84-7.87-7.63-17.52-10.82-13.9-24.64,5.19-19.81,35.73-28.64,50.23-14.75l-1.94-1.87c5.84,2.1,12.48-2.65,18.4-3.15a36.27,36.27,0,0,1,5.8,0V345.77a22.77,22.77,0,0,1-9.9-9.66c-5.57-10.5,4.45-20.06,5.41-30.11,1-10.81-4.57-21,3.45-30.59.34-.4.69-.78,1-1.16v-35.5c-5-10.81-4.94-21.75,0-27.09V102.13C886.68,97.28,873.19,93.33,868.8,95.47ZM854.48,550.88c9.09.14,16.26,12.63,16,27.89s-7.82,27.51-16.92,27.37-16.26-12.64-16-27.9S845.39,550.73,854.48,550.88ZM830.4,524.12c7.83,2.68,10.53,15.5,6.05,28.63s-14.47,21.61-22.3,18.94-10.53-15.5-6-28.64S822.57,521.44,830.4,524.12ZM881.23,315c-6.44,6.43-19.61,3.68-29.42-6.15s-12.56-23-6.12-29.45,19.6-3.68,29.41,6.15S887.66,308.6,881.23,315Zm7.23-69.71c9.31,12.09,11,26.4,3.8,31.95s-20.59.26-29.89-11.84-11-26.4-3.8-31.95S879.16,233.24,888.46,245.33Z"/><path class="cls-5" d="M894.18,476.62c-5.92.5-12.56,5.25-18.4,3.15l1.94,1.87c-14.5-13.89-45-5.06-50.23,14.75-3.62,13.82,6,17,13.9,24.64,7.57,7.34,9.15,18.47,18.11,24.84,8.67,6.16,19.77,8.84,30,5.12,5.27-1.91,8.22-5.34,10.44-9.32V476.6A36.27,36.27,0,0,0,894.18,476.62Z"/><path class="cls-5" d="M896.25,552.71c-9,1.2-14.69,14.44-12.68,29.57,1.74,13.14,8.71,23.37,16.41,25.05v-54.4A10.19,10.19,0,0,0,896.25,552.71Z"/><path class="cls-5" d="M853.58,606.14c9.1.14,16.67-12.11,16.92-27.37s-6.93-27.75-16-27.89-16.67,12.1-16.91,27.36S844.49,606,853.58,606.14Z"/><path class="cls-5" d="M808.11,543.05c-4.49,13.14-1.78,26,6,28.64s17.81-5.8,22.3-18.94,1.78-26-6.05-28.63S812.59,529.92,808.11,543.05Z"/><path class="cls-4" d="M895.49,306c-1,10.05-11,19.61-5.41,30.11a22.77,22.77,0,0,0,9.9,9.66V274.25c-.35.38-.7.76-1,1.16C890.92,285,896.52,295.19,895.49,306Z"/><path class="cls-4" d="M845.69,279.44c-6.44,6.43-3.69,19.62,6.12,29.45s23,12.58,29.42,6.15,3.69-19.62-6.13-29.45S852.12,273,845.69,279.44Z"/><path class="cls-4" d="M858.57,233.49c-7.2,5.55-5.5,19.86,3.8,31.95s22.68,17.4,29.89,11.84,5.51-19.86-3.8-31.95S865.78,227.93,858.57,233.49Z"/><path class="cls-4" d="M900,238.75V211.66C895,217,895,227.94,900,238.75Z"/><path class="cls-10" d="M870.37,686.37c19.58,2.62,11.5,29.19-4.45,31,29.7-24.29-22.23-48-34-18.29-7,20.32,13.4,31.59,22,27.16,7.92,5.63,12,54.45,12.87,62.76-9.93,6.21-19.32,9.8-21.64,21.95C841,855.14,883.62,840,880,827.82c-1.58-8-12.29-21.87,1.87-26.52l-.79.43c-7.78,13.73,4.91,27.74,18.93,31.85V787.52c-.49-.15-1-.29-1.47-.41-9.25-2.31-12.46-51.32-10.77-60.28,1-5.12,6.75-5.26,12.24-7.55V681.74l-.23-.14C889.68,676.56,879.31,681.8,870.37,686.37Z"/><path class="cls-8" d="M885.54,66.06c-6.78-5.55,5.36-16.33-5.11-27.25-6.67-8-20.17-11-28.81-5-9.24,6.43-9.61,18.06-9.89,28.1,11.68-16,31.11,3.87,25,18.74C859.69,43,814,77.22,834.46,101.77c14.48,15.87,34.12,3.36,34.34-6.3,4.39-2.14,17.88,1.81,31.18,6.66v-28C893.16,70.87,887.66,67.8,885.54,66.06Z"/><path class="cls-1" d="M196.59,897.7a14.2,14.2,0,0,0,1.48,4h7.17a17.13,17.13,0,0,1-8.3-3.14Z"/><path class="cls-7" d="M642.51,896.18c-3.77-13.78-13.72-11.71-24.35-14.37-10.22-2.57-17.15-11.42-28.09-12.44-10.59-1-21.54,2.24-28.57,10.61-5.78,6.89-4.48,14.13-3.7,21.68h85.53A23.36,23.36,0,0,0,642.51,896.18Z"/><path class="cls-7" d="M537.67,890.16c-9.82-9.83-23-12.58-29.42-6.15-4.05,4-4.46,10.77-1.76,17.65h38.94A35.26,35.26,0,0,0,537.67,890.16Z"/><path class="cls-7" d="M554.83,881.85c7.2-5.55,5.5-19.86-3.8-32s-22.68-17.4-29.89-11.84-5.51,19.86,3.79,32S547.62,887.4,554.83,881.85Z"/><path class="cls-7" d="M591.91,862.52c8-4.42,8.38-18.82,1-32.15S573,809.8,565.06,814.23s-8.38,18.83-1,32.16S584,867,591.91,862.52Z"/><path class="cls-7" d="M626.14,873.62c8.11-1.6,12.51-13.93,9.83-27.55s-11.43-23.36-19.54-21.76-12.52,13.94-9.85,27.56S618,875.23,626.14,873.62Z"/><path class="cls-11" d="M404.48,869.68c-14.27.3-14.69,10.46-19.86,20.13-2.52,4.71-6.39,8.2-10.08,11.85h60.51C434.4,885.92,420.56,869.33,404.48,869.68Z"/><path class="cls-11" d="M352.79,893.75c13.84.72,25.42-5.4,25.84-13.68s-10.45-15.54-24.3-16.26-25.42,5.4-25.85,13.67S338.93,893,352.79,893.75Z"/><path class="cls-4" d="M815.76,901.43c-7-4.2-24.45-5.56-18.39-19.19l-.21.87c9,27.36,64.55,4.83,42.51-23.06-8.77-11.1-30.24-7.33-41.61.3-7.92,5.31-46.38-25.21-51.87-32.48-5.29-7,9-14.61,1.4-27.68-4.6-9.38-17-15.4-26.84-11.58-10.49,4.08-13.57,15.3-16.19,25,15.08-12.77,29.34,11,20,24.08,1.94-38.33-50.5-15.74-36.35,12.93,10.37,18.81,32.39,11.26,34.86,1.93,9.49-2.1,48.36,27.68,55.13,32.57-1.08,6-2.55,11.36-2.72,16.54h40.74Z"/><path class="cls-12" d="M196.59,897.7l.35.82a17.13,17.13,0,0,0,8.3,3.14h3.41c20.19-2.12,37.36-39.38,8.59-47.06-13.67-3.66-28.62,12.21-33.18,25.14-3.18,9-52.23,7.54-61,5-8.42-2.43-1.49-17.12-15.41-23-9.29-4.76-22.86-2.14-28.44,6.78-6,9.55-1.74,20.39,2,29.73,4.08-17.64,25.94-10.25,29.79,3.45h87.09A14.2,14.2,0,0,1,196.59,897.7Z"/><path class="cls-12" d="M84,901.66h24.57C99.61,891.59,90,894.25,84,901.66Z"/><path class="cls-1" d="M814.88-.13c10.61,6.31-6.72,46.58-36.3,14.24A21.27,21.27,0,0,1,774.14-.13H642c.59,18.24-19.21,36.77-36.92,32.44l2.61.65c-6.11,1.11-9.49,8.54-14.35,11.94a34.75,34.75,0,0,1-19,6.37c-9.27.48-18.49-3.79-23-12.38-5.58-10.51,4.44-20.06,5.4-30.12a44,44,0,0,0-.25-8.9H544.13c2.82,7,2.47,13.83-1.64,17.94-6.43,6.44-19.6,3.68-29.42-6.14a35,35,0,0,1-7.88-11.8H433.75a24.08,24.08,0,0,1-2.63,12.31l1.27-2.37c-.42,6.19,6,11.28,8.06,16.84a34.77,34.77,0,0,1,1.56,20c-1.8,9.12-8.18,17-17.62,19.35-11.54,2.85-18.35-9.2-27.86-12.59-10.23-3.63-21.5-.69-28.8-10.8-6.39-8.86-6.86-20.28-3.32-30.32,1.81-5.12,5.23-8.82,8.83-12.38H348.12c5.22,1.65,9,4.72,10.11,8.93,2.35,8.79-7.68,19.12-22.41,23.06s-28.58,0-30.93-8.77S312.57,4,327.3,0c.22-.06.44-.1.66-.15H207.35a16.9,16.9,0,0,1-3.41,0h-7.17c5,8.61,17.49,1.14,24.71.41C234-2.2,245,41.69,201.37,33.36c-11.86-3.47-14.55-13.17-19.77-23.65-8.35.12-57.3-.49-63.65,6.87,3.59,9-9.55,28.2-29.1,19.31C73.35,28,74.76,9.72,82.69-.13H-1.19v114.4H900.88V-.13ZM317.27,71.54c-3.62-8.36,4.78-20.06,18.76-26.14s28.26-4.24,31.89,4.11-4.78,20-18.76,26.13S320.9,79.88,317.27,71.54Zm71.41,24.94c-11.91,7.13-25.36,6.58-30-1.23s1.22-19.93,13.14-27.06,25.36-6.58,30,1.23S400.6,89.35,388.68,96.48Z"/><path class="cls-1" d="M109.67-.13h-2.41a36.51,36.51,0,0,1,3,3.92A14.93,14.93,0,0,0,109.67-.13Z"/><path class="cls-7" d="M556.75,8.77c-1,10.06-11,19.61-5.4,30.12,4.55,8.59,13.77,12.86,23,12.38a34.75,34.75,0,0,0,19-6.37c4.86-3.4,8.24-10.83,14.35-11.94l-2.61-.65C622.81,36.64,642.61,18.11,642-.13H556.5A44,44,0,0,1,556.75,8.77Z"/><path class="cls-7" d="M542.49,17.81c4.11-4.11,4.46-11,1.64-17.94H505.19a35,35,0,0,0,7.88,11.8C522.89,21.49,536.06,24.25,542.49,17.81Z"/><path class="cls-11" d="M367.73,42.57c7.3,10.11,18.57,7.17,28.8,10.8C406,56.76,412.85,68.81,424.39,66c9.44-2.33,15.82-10.23,17.62-19.35a34.77,34.77,0,0,0-1.56-20C438.35,21.09,432,16,432.39,9.81l-1.27,2.37A24.08,24.08,0,0,0,433.75-.13H373.24c-3.6,3.56-7,7.26-8.83,12.38C360.87,22.29,361.34,33.71,367.73,42.57Z"/><path class="cls-11" d="M371.79,68.19c-11.92,7.13-17.8,19.24-13.14,27.06s18.12,8.36,30,1.23,17.8-19.25,13.13-27.06S383.7,61.05,371.79,68.19Z"/><path class="cls-11" d="M367.92,49.51C364.29,41.16,350,39.32,336,45.4s-22.38,17.78-18.76,26.14,17.9,10.18,31.89,4.1S371.54,57.86,367.92,49.51Z"/><path class="cls-11" d="M304.89,23.09c2.35,8.79,16.2,12.72,30.93,8.77S360.58,17.59,358.23,8.8c-1.12-4.21-4.89-7.28-10.11-8.93H328c-.22.05-.44.09-.66.15C312.57,4,302.54,14.29,304.89,23.09Z"/><path class="cls-4" d="M778.58,14.11c29.58,32.34,46.91-7.93,36.3-14.24H774.14A21.27,21.27,0,0,0,778.58,14.11Z"/><path class="cls-12" d="M88.85,35.89c19.55,8.89,32.69-10.35,29.1-19.31,6.35-7.36,55.3-6.75,63.65-6.87,5.22,10.48,7.91,20.18,19.77,23.65C245,41.69,234-2.2,221.48.28c-7.22.73-19.73,8.2-24.71-.41h-87.1a14.93,14.93,0,0,1,.6,3.92,36.51,36.51,0,0,0-3-3.92H82.69C74.76,9.72,73.35,28,88.85,35.89Z"/></g></svg>